<svg width="25" height="24" viewBox="0 0 25 24" fill="none" xmlns="http://www.w3.org/2000/svg">
<path fill-rule="evenodd" clip-rule="evenodd" d="M13.4999 12C13.4999 12.55 13.0499 13 12.4999 13C11.9499 13 11.4999 12.55 11.4999 12V8.05005C11.4999 7.50005 11.9499 7.05005 12.4999 7.05005C13.0499 7.05005 13.4999 7.50005 13.4999 8.05005V12ZM12.4999 16.25C11.9499 16.25 11.4999 15.8 11.4999 15.25C11.4999 14.7 11.9499 14.25 12.4999 14.25C13.0499 14.25 13.4999 14.7 13.4999 15.25C13.4999 15.8 13.0499 16.25 12.4999 16.25ZM22.0899 15.89L14.8899 3.19005C14.3999 2.32005 13.4999 1.80005 12.4999 1.80005C11.4999 1.80005 10.5999 2.32005 10.1099 3.19005L2.90992 15.89C2.41992 16.75 2.42992 17.78 2.92992 18.63C3.41992 19.49 4.30992 20 5.29992 20H19.6999C20.6899 20 21.5799 19.49 22.0699 18.63C22.5699 17.78 22.5799 16.75 22.0899 15.89Z" fill="#F24848"/>
</svg>
